<?xml version="1.0" standalone="no"?>
<!DOCTYPE svg PUBLIC "-//W3C//DTD SVG 20010904//EN"
 "http://www.w3.org/TR/2001/REC-SVG-20010904/DTD/svg10.dtd">
<svg version="1.0" xmlns="http://www.w3.org/2000/svg"
 width="700.000000pt" height="700.000000pt" viewBox="0 0 700.000000 700.000000"
 preserveAspectRatio="xMidYMid meet">
<metadata>
Created by potrace 1.14, written by Peter Selinger 2001-2017
</metadata>
<g transform="translate(0.000000,700.000000) scale(0.100000,-0.100000)"
fill="#000000" stroke="none">
<path d="M3269 5356 c-2 -2 -38 -6 -79 -10 -496 -40 -1042 -215 -1459 -467
-34 -22 -65 -39 -67 -39 -5 0 -258 -172 -264 -179 -3 -4 -36 -31 -75 -61 -191
-149 -426 -384 -560 -560 -66 -85 -78 -100 -93 -115 -6 -8 -12 -18 -12 -23 0
-6 -4 -12 -8 -14 -26 -10 -222 -339 -305 -510 -113 -234 -223 -549 -263 -753
-2 -11 -6 -31 -9 -45 -3 -14 -7 -35 -10 -48 -2 -13 -6 -31 -9 -40 -3 -9 -8
-42 -11 -72 -4 -30 -8 -57 -10 -60 -2 -3 -6 -39 -10 -80 -4 -41 -9 -84 -11
-95 -3 -11 -7 -99 -9 -195 -5 -193 2 -226 59 -283 113 -113 309 -72 366 77 6
16 13 81 15 145 4 118 15 262 20 293 2 9 6 43 10 75 3 32 8 65 10 73 2 8 7 29
10 45 5 28 9 49 19 101 16 82 72 270 111 379 224 618 636 1144 1188 1513 42
29 80 52 83 52 3 0 18 9 32 19 105 74 507 261 617 286 11 3 58 16 105 31 76
23 223 59 290 70 14 2 36 6 50 9 14 3 48 7 75 11 28 3 61 7 75 10 132 23 661
23 732 0 7 -3 36 -7 63 -10 58 -6 264 -48 345 -69 665 -178 1263 -584 1669
-1132 45 -60 86 -115 91 -122 6 -7 10 -15 10 -18 0 -3 17 -32 38 -63 107 -160
230 -416 304 -632 46 -135 105 -362 113 -440 3 -19 7 -46 10 -60 10 -45 13
-64 19 -123 14 -133 17 -168 21 -290 3 -105 8 -137 25 -173 56 -114 197 -156
311 -92 45 25 96 95 105 144 6 32 -1 291 -10 364 -3 19 -7 62 -11 95 -3 33 -8
67 -10 75 -2 8 -6 35 -9 60 -45 352 -225 864 -418 1185 -9 17 -25 44 -34 60
-49 89 -217 328 -294 419 -336 398 -682 677 -1115 901 -298 154 -652 275 -965
329 -131 23 -141 24 -210 31 -36 4 -74 9 -85 12 -23 6 -560 14 -566 9z"/>
<path d="M3288 4125 c-2 -2 -33 -7 -68 -11 -36 -3 -68 -8 -71 -10 -3 -1 -28
-6 -55 -9 -27 -3 -62 -10 -79 -15 -16 -6 -73 -21 -125 -34 -427 -109 -860
-395 -1159 -766 -256 -318 -437 -733 -477 -1095 -3 -27 -8 -53 -10 -56 -2 -3
-6 -70 -10 -148 -5 -107 -3 -153 7 -184 61 -189 322 -211 408 -34 16 34 22 69
26 158 3 63 7 125 10 139 2 14 7 50 10 80 4 30 11 73 17 95 5 22 12 51 15 65
21 120 144 404 235 545 303 468 813 783 1347 832 140 13 411 6 481 -12 8 -2
32 -6 52 -9 95 -14 270 -70 399 -126 323 -143 619 -400 807 -702 173 -278 265
-584 277 -916 5 -151 46 -220 152 -258 123 -43 265 37 289 163 6 34 -1 242
-11 313 -3 19 -7 51 -10 70 -76 543 -380 1071 -820 1426 -248 199 -549 353
-840 429 -104 27 -117 29 -210 45 -33 5 -76 12 -95 16 -38 7 -486 15 -492 9z"/>
<path d="M3478 2906 c-1 -2 -37 -6 -80 -10 -376 -32 -731 -300 -868 -657 -49
-129 -65 -214 -65 -349 0 -98 2 -108 28 -146 52 -76 123 -110 213 -101 120 12
191 103 199 256 3 45 10 92 17 104 6 12 11 24 10 27 -4 10 22 76 48 123 68
124 193 226 335 274 67 23 97 27 185 27 72 0 122 -6 160 -18 191 -60 335 -193
397 -363 28 -78 33 -100 40 -192 7 -93 23 -131 73 -179 109 -107 290 -70 351
71 19 46 21 63 16 157 -11 182 -65 344 -167 498 -181 274 -471 448 -780 468
-47 3 -90 7 -97 9 -6 2 -13 2 -15 1z"/>
</g>
</svg>
