<svg id="Layer_1" data-name="Layer 1" xmlns="http://www.w3.org/2000/svg" viewBox="0 0 1132.63 191.16"><defs><style>.cls-1{fill:#94e2ff;stroke:#000;stroke-miterlimit:10;}</style></defs><path class="cls-1" d="M438.5,307.5,428,291.72,404.5,281.5l-29,3-17-12L337,268l-17,6.49-7.5,12-13,1c-11.67-6.06-35.71-16.24-65-12-40.4,5.85-64.43,35.35-78,52a174.36,174.36,0,0,0-33,65L109,421l56.5-36.5-2,18-18,8L138,421l7,7.3h5l12.5-6.8h20l3,30,9,6.5,9.75-9,4.25,3.5,13-9-25.39-17.87L225,428l20.5-6.5,18-16,16-8,20-.5,30,14.5L341,433l11-5h21l5-12.5h7l7.5-11-42,11-41-28,1-35c20.7-5.52,32.36-22.71,31.5-35.71V291.72l17.5,9.78,20,12,18,5v-16l9-3,11,14,1,8,10-1,21,2,6-10Zm-244,117,.6.19-.11.15Z" transform="translate(-107.71 -267.48)"/><path d="M479.22,320.18v29.36h6.39a1.94,1.94,0,0,1,1.26.33,1.17,1.17,0,0,1,.38.9,1.14,1.14,0,0,1-.38.87,1.82,1.82,0,0,1-1.26.36H470.34a1.82,1.82,0,0,1-1.26-.36,1.14,1.14,0,0,1-.38-.87,1.17,1.17,0,0,1,.38-.9,1.94,1.94,0,0,1,1.26-.33h6.39V320.18H466.65v8.53a1.89,1.89,0,0,1-.34,1.28,1.11,1.11,0,0,1-.89.39,1.15,1.15,0,0,1-.88-.39,1.88,1.88,0,0,1-.35-1.28v-11h27.57v11a1.89,1.89,0,0,1-.34,1.28,1.11,1.11,0,0,1-.89.39,1.14,1.14,0,0,1-.9-.39,2,2,0,0,1-.33-1.28v-8.53Z" transform="translate(-107.71 -267.48)"/><path d="M505.91,315.23v15.15a15.45,15.45,0,0,1,4.5-3.59,10.81,10.81,0,0,1,4.81-1,10.67,10.67,0,0,1,4.88,1,8.57,8.57,0,0,1,3.36,3.1,8,8,0,0,1,1.34,4.41v15.27h2.76a1.9,1.9,0,0,1,1.27.33,1.16,1.16,0,0,1,.37.9,1.13,1.13,0,0,1-.37.87,1.78,1.78,0,0,1-1.27.36h-8a1.88,1.88,0,0,1-1.29-.36,1.14,1.14,0,0,1-.38-.87,1.17,1.17,0,0,1,.38-.9,2,2,0,0,1,1.29-.33h2.75V334.45A5.88,5.88,0,0,0,520.4,330a7.57,7.57,0,0,0-5.35-1.78,7.87,7.87,0,0,0-4.6,1.32,32,32,0,0,0-4.54,4.42v15.59h2.78a1.9,1.9,0,0,1,1.26.33,1.14,1.14,0,0,1,.38.9,1.1,1.1,0,0,1-.38.87,1.79,1.79,0,0,1-1.26.36h-8a1.82,1.82,0,0,1-1.26-.36,1.14,1.14,0,0,1-.38-.87,1.17,1.17,0,0,1,.38-.9,1.94,1.94,0,0,1,1.26-.33h2.79V317.72h-3.31a1.84,1.84,0,0,1-1.26-.35,1.17,1.17,0,0,1-.38-.91,1.12,1.12,0,0,1,.38-.88,1.84,1.84,0,0,1,1.26-.35Z" transform="translate(-107.71 -267.48)"/><path d="M563.33,339.9H538.25a11.93,11.93,0,0,0,4,7.69,12.25,12.25,0,0,0,8.31,2.91,19.88,19.88,0,0,0,5.77-.91,14.67,14.67,0,0,0,4.92-2.4,1.68,1.68,0,0,1,1-.44,1.1,1.1,0,0,1,.82.37,1.21,1.21,0,0,1,.35.86,1.39,1.39,0,0,1-.47,1,13.11,13.11,0,0,1-5,2.74,21.79,21.79,0,0,1-7.36,1.27A14.49,14.49,0,0,1,540,348.82a13.52,13.52,0,0,1-4.24-10,12.34,12.34,0,0,1,4-9.2,13.62,13.62,0,0,1,9.83-3.83,13.37,13.37,0,0,1,9.93,3.94A13.68,13.68,0,0,1,563.33,339.9Zm-2.49-2.49a10.68,10.68,0,0,0-3.85-6.62,12.13,12.13,0,0,0-14.84,0,10.79,10.79,0,0,0-3.87,6.65Z" transform="translate(-107.71 -267.48)"/><path d="M501,417.29v15.47a38.65,38.65,0,0,1-8.23,3.44,30,30,0,0,1-8.18,1.16,27.9,27.9,0,0,1-10.21-1.72,20.92,20.92,0,0,1-7.45-4.81,23,23,0,0,1-4.75-6.92,24,24,0,0,1-1.7-9.71v-6.62a24.55,24.55,0,0,1,2.94-11.53,20.9,20.9,0,0,1,8.06-8.58,21.87,21.87,0,0,1,11.13-3,23,23,0,0,1,14.74,4.77,11.72,11.72,0,0,1,.15-2.54,1.61,1.61,0,0,1,.62-.75,1.9,1.9,0,0,1,1.07-.32,1.68,1.68,0,0,1,1.29.56,2.66,2.66,0,0,1,.52,1.85v8.16a2.65,2.65,0,0,1-.52,1.87,1.7,1.7,0,0,1-1.29.54,1.67,1.67,0,0,1-1.22-.5,2.57,2.57,0,0,1-.54-1.74q-.26-3.65-4.74-6a21,21,0,0,0-9.78-2.32,18.6,18.6,0,0,0-9,2.17q-4,2.18-7.5,8.27a17.69,17.69,0,0,0-2.32,9.07v6.57q0,9,5.5,14.27t15.17,5.28a25.32,25.32,0,0,0,6.06-.69,37.28,37.28,0,0,0,6.53-2.4V417.29H485a2.77,2.77,0,0,1-1.85-.49,1.66,1.66,0,0,1-.56-1.31,1.74,1.74,0,0,1,.56-1.33,2.66,2.66,0,0,1,1.85-.52l17.36.05a2.79,2.79,0,0,1,1.85.49,1.67,1.67,0,0,1,.55,1.31,1.7,1.7,0,0,1-.34,1,1.64,1.64,0,0,1-.77.62A11.33,11.33,0,0,1,501,417.29Z" transform="translate(-107.71 -267.48)"/><path d="M544.59,435.94v-5.2q-7.86,6.63-16.8,6.62-6.49,0-10.14-3.29A10.39,10.39,0,0,1,514,426q0-5.25,4.81-9.15T532.86,413a48.17,48.17,0,0,1,5.41.32q2.93.32,6.32,1v-5.85a6.46,6.46,0,0,0-2.75-5.15q-2.75-2.19-8.25-2.19-4.22,0-11.82,2.44A7.89,7.89,0,0,1,520,404a1.58,1.58,0,0,1-1.18-.51,1.77,1.77,0,0,1-.49-1.29,1.55,1.55,0,0,1,.43-1.16q.6-.64,4.85-1.76a42.63,42.63,0,0,1,10.14-1.81q6.84,0,10.66,3.38a10,10,0,0,1,3.82,7.62v23.89h4.81a2.88,2.88,0,0,1,1.9.5,1.66,1.66,0,0,1,.55,1.31,1.7,1.7,0,0,1-.55,1.29,2.82,2.82,0,0,1-1.9.51Zm0-18a35.2,35.2,0,0,0-5.37-1.07,49.42,49.42,0,0,0-6-.35q-7.87,0-12.29,3.4a7.42,7.42,0,0,0-3.35,6.06,7,7,0,0,0,2.55,5.5c1.71,1.49,4.19,2.23,7.46,2.23a20.32,20.32,0,0,0,8.7-1.87,31.27,31.27,0,0,0,8.27-5.95Z" transform="translate(-107.71 -267.48)"/><path d="M588.85,382v50.31H603a2.84,2.84,0,0,1,1.89.5,1.66,1.66,0,0,1,.56,1.31,1.71,1.71,0,0,1-.56,1.29,2.78,2.78,0,0,1-1.89.51h-32a2.71,2.71,0,0,1-1.85-.51,1.71,1.71,0,0,1-.56-1.29,1.66,1.66,0,0,1,.56-1.31,2.77,2.77,0,0,1,1.85-.5h14.18V385.67h-10.4a2.75,2.75,0,0,1-1.87-.52,1.67,1.67,0,0,1-.58-1.33,1.71,1.71,0,0,1,.56-1.29,2.78,2.78,0,0,1,1.89-.51Z" transform="translate(-107.71 -267.48)"/><path d="M641.66,382v50.31h14.18a2.87,2.87,0,0,1,1.89.5,1.66,1.66,0,0,1,.56,1.31,1.71,1.71,0,0,1-.56,1.29,2.81,2.81,0,0,1-1.89.51h-32a2.71,2.71,0,0,1-1.85-.51,1.71,1.71,0,0,1-.56-1.29,1.66,1.66,0,0,1,.56-1.31,2.77,2.77,0,0,1,1.85-.5h14.18V385.67h-10.4a2.75,2.75,0,0,1-1.87-.52,1.67,1.67,0,0,1-.58-1.33,1.71,1.71,0,0,1,.56-1.29,2.78,2.78,0,0,1,1.89-.51Z" transform="translate(-107.71 -267.48)"/><path d="M712.81,417.42a19.12,19.12,0,0,1-5.91,14.1,20.34,20.34,0,0,1-28.55,0,19.81,19.81,0,0,1,0-28.19,20.32,20.32,0,0,1,28.55,0A19.14,19.14,0,0,1,712.81,417.42Zm-3.65,0a15.62,15.62,0,0,0-4.83-11.55,16.73,16.73,0,0,0-23.42,0,16.14,16.14,0,0,0,0,23.05,16.68,16.68,0,0,0,23.42,0A15.66,15.66,0,0,0,709.16,417.42Z" transform="translate(-107.71 -267.48)"/><path d="M731.85,398.73v6.58a23.3,23.3,0,0,1,6.92-5.89,18.19,18.19,0,0,1,8.72-2,19.94,19.94,0,0,1,9.84,2.5,17.46,17.46,0,0,1,7,6.94,18.92,18.92,0,0,1,2.47,9.34,18,18,0,0,1-5.56,13.3,19.64,19.64,0,0,1-29.37-2.34v21.74h8.76a2.77,2.77,0,0,1,1.85.49,1.79,1.79,0,0,1,0,2.6,2.66,2.66,0,0,1-1.85.52H723.38a2.8,2.8,0,0,1-1.84-.49,1.82,1.82,0,0,1,0-2.63,2.74,2.74,0,0,1,1.84-.49h4.86V402.38h-4.86a2.68,2.68,0,0,1-1.84-.51,1.7,1.7,0,0,1-.56-1.33,1.65,1.65,0,0,1,.56-1.29,2.63,2.63,0,0,1,1.84-.52Zm31.28,17.49a14.45,14.45,0,0,0-4.53-10.68,16.07,16.07,0,0,0-22.2,0,14.81,14.81,0,0,0,0,21.36,16,16,0,0,0,22.17,0A14.43,14.43,0,0,0,763.13,416.22Z" transform="translate(-107.71 -267.48)"/><path d="M800.17,398.73v33.6h14.18a2.84,2.84,0,0,1,1.89.5,1.66,1.66,0,0,1,.56,1.31,1.71,1.71,0,0,1-.56,1.29,2.78,2.78,0,0,1-1.89.51h-32a2.71,2.71,0,0,1-1.85-.51,1.71,1.71,0,0,1-.56-1.29,1.66,1.66,0,0,1,.56-1.31,2.77,2.77,0,0,1,1.85-.5h14.18V402.38H786a2.81,2.81,0,0,1-1.87-.51,1.67,1.67,0,0,1-.58-1.29,1.74,1.74,0,0,1,.56-1.33,2.72,2.72,0,0,1,1.89-.52ZM800,380.21v9.33h-5.33v-9.33Z" transform="translate(-107.71 -267.48)"/><path d="M839.4,398.73v5.46a26.25,26.25,0,0,1,6.83-5.29,15.78,15.78,0,0,1,6.88-1.46,16,16,0,0,1,7.51,1.77,12.27,12.27,0,0,1,4.37,4.27,11.06,11.06,0,0,1,2,6.12v22.73h3a2.77,2.77,0,0,1,1.85.5,1.66,1.66,0,0,1,.56,1.31,1.71,1.71,0,0,1-.56,1.29,2.71,2.71,0,0,1-1.85.51h-9.67a2.81,2.81,0,0,1-1.89-.51,1.7,1.7,0,0,1-.55-1.29,1.66,1.66,0,0,1,.55-1.31,2.87,2.87,0,0,1,1.89-.5h3V410.21a8.57,8.57,0,0,0-2.79-6.47,10.45,10.45,0,0,0-7.48-2.64,12.6,12.6,0,0,0-6.18,1.44q-2.62,1.44-7.48,7.15v22.64h4.08a2.77,2.77,0,0,1,1.85.5,1.66,1.66,0,0,1,.56,1.31,1.71,1.71,0,0,1-.56,1.29,2.71,2.71,0,0,1-1.85.51H831.71a2.71,2.71,0,0,1-1.85-.51,1.71,1.71,0,0,1-.56-1.29,1.66,1.66,0,0,1,.56-1.31,2.77,2.77,0,0,1,1.85-.5h4.08V402.38h-3a2.71,2.71,0,0,1-1.85-.51,1.74,1.74,0,0,1-.56-1.33,1.68,1.68,0,0,1,.56-1.29,2.66,2.66,0,0,1,1.85-.52Z" transform="translate(-107.71 -267.48)"/><path d="M916,405.35v-6.62h8.47a2.63,2.63,0,0,1,1.84.52,1.7,1.7,0,0,1,.56,1.33,1.65,1.65,0,0,1-.56,1.29,2.68,2.68,0,0,1-1.84.51h-4.86v36.06a13.14,13.14,0,0,1-1.55,6.44,14.25,14.25,0,0,1-3.43,3.91,18.56,18.56,0,0,1-4.39,2.88,13.49,13.49,0,0,1-5.28.86H894.74a2.85,2.85,0,0,1-1.85-.49,1.68,1.68,0,0,1-.55-1.32,1.74,1.74,0,0,1,.55-1.33,2.73,2.73,0,0,1,1.85-.51l10.36,0a10.39,10.39,0,0,0,5.73-1.63,12.47,12.47,0,0,0,4.24-4.77,9.91,9.91,0,0,0,.94-4.6V427.09q-5.81,7.95-15,8a17.33,17.33,0,0,1-12.83-5.52,19.08,19.08,0,0,1,0-26.58,17.39,17.39,0,0,1,12.83-5.5Q910.21,397.44,916,405.35Zm0,10.87a14.62,14.62,0,0,0-4.36-10.74,14.54,14.54,0,0,0-20.82,0,15.46,15.46,0,0,0,0,21.48,14.49,14.49,0,0,0,20.82,0A14.69,14.69,0,0,0,916,416.22Z" transform="translate(-107.71 -267.48)"/><path d="M1029.11,417.29v15.47a38.86,38.86,0,0,1-8.23,3.44,30.16,30.16,0,0,1-8.19,1.16,27.81,27.81,0,0,1-10.2-1.72,21,21,0,0,1-7.46-4.81,23.23,23.23,0,0,1-4.75-6.92,24.06,24.06,0,0,1-1.69-9.71v-6.62a24.55,24.55,0,0,1,2.94-11.53,20.84,20.84,0,0,1,8.06-8.58,21.81,21.81,0,0,1,11.12-3,23,23,0,0,1,14.74,4.77,11.72,11.72,0,0,1,.15-2.54,1.58,1.58,0,0,1,.63-.75,1.87,1.87,0,0,1,1.07-.32,1.68,1.68,0,0,1,1.29.56,2.71,2.71,0,0,1,.52,1.85v8.16a2.7,2.7,0,0,1-.52,1.87,1.7,1.7,0,0,1-1.29.54,1.65,1.65,0,0,1-1.22-.5,2.57,2.57,0,0,1-.54-1.74c-.17-2.43-1.76-4.42-4.75-6a20.92,20.92,0,0,0-9.77-2.32,18.61,18.61,0,0,0-9,2.17q-4,2.18-7.49,8.27a17.69,17.69,0,0,0-2.32,9.07v6.57q0,9,5.5,14.27t15.16,5.28a25.21,25.21,0,0,0,6.06-.69,37.28,37.28,0,0,0,6.53-2.4V417.29H1013a2.77,2.77,0,0,1-1.85-.49,1.63,1.63,0,0,1-.56-1.31,1.7,1.7,0,0,1,.56-1.33,2.66,2.66,0,0,1,1.85-.52l17.35.05a2.77,2.77,0,0,1,1.85.49,1.68,1.68,0,0,1,.56,1.31,1.7,1.7,0,0,1-.34,1,1.61,1.61,0,0,1-.78.62A11.15,11.15,0,0,1,1029.11,417.29Z" transform="translate(-107.71 -267.48)"/><path d="M1082.47,417.42a19.12,19.12,0,0,1-5.91,14.1,20.34,20.34,0,0,1-28.55,0,19.81,19.81,0,0,1,0-28.19,20.32,20.32,0,0,1,28.55,0A19.14,19.14,0,0,1,1082.47,417.42Zm-3.65,0a15.62,15.62,0,0,0-4.83-11.55,16.73,16.73,0,0,0-23.42,0,16.14,16.14,0,0,0,0,23.05,16.68,16.68,0,0,0,23.42,0A15.66,15.66,0,0,0,1078.82,417.42Z" transform="translate(-107.71 -267.48)"/><path d="M1135.28,417.42a19.12,19.12,0,0,1-5.91,14.1,20.34,20.34,0,0,1-28.55,0,19.81,19.81,0,0,1,0-28.19,20.32,20.32,0,0,1,28.55,0A19.14,19.14,0,0,1,1135.28,417.42Zm-3.65,0a15.59,15.59,0,0,0-4.84-11.55,16.72,16.72,0,0,0-23.41,0,16.14,16.14,0,0,0,0,23.05,16.67,16.67,0,0,0,23.41,0A15.63,15.63,0,0,0,1131.63,417.42Z" transform="translate(-107.71 -267.48)"/><path d="M1179.84,401.1a2.59,2.59,0,0,1,.52-1.81,1.67,1.67,0,0,1,1.28-.56,1.76,1.76,0,0,1,1.34.56,2.78,2.78,0,0,1,.51,1.89v6.19a2.73,2.73,0,0,1-.51,1.85,1.76,1.76,0,0,1-1.34.56,1.69,1.69,0,0,1-1.22-.48,2.33,2.33,0,0,1-.58-1.54,5.77,5.77,0,0,0-2.66-4.26q-3.53-2.4-9.33-2.4c-4,0-7.17.81-9.41,2.44-1.69,1.24-2.53,2.61-2.53,4.13q0,2.58,3,4.3,2.07,1.2,7.82,1.84a53.41,53.41,0,0,1,10.45,1.85,13.25,13.25,0,0,1,6.2,4.17,9.25,9.25,0,0,1,2,5.76q0,4.59-4.43,8.18t-13,3.59q-8.55,0-14-4.34a6,6,0,0,1-.18,1.89,1.54,1.54,0,0,1-.62.73,1.79,1.79,0,0,1-1,.3,1.68,1.68,0,0,1-1.29-.56,2.68,2.68,0,0,1-.51-1.84V426.1a2.74,2.74,0,0,1,.49-1.84,1.65,1.65,0,0,1,1.31-.56,1.8,1.8,0,0,1,1.31.53,2,2,0,0,1,.54,1.44,5.4,5.4,0,0,0,1,3.31,10.79,10.79,0,0,0,4.79,3.42,21.2,21.2,0,0,0,8.05,1.35q7,0,10.49-2.62c2.29-1.75,3.44-3.59,3.44-5.54q0-3.36-3.48-5.37t-10.25-2.71a42,42,0,0,1-9.65-1.8,9.79,9.79,0,0,1-4.55-3.36,8,8,0,0,1-1.64-4.81q0-4.64,4.56-7.37a20.74,20.74,0,0,1,10.87-2.73Q1175.15,397.44,1179.84,401.1Z" transform="translate(-107.71 -267.48)"/><path d="M1240.25,418.2h-36.78a17.48,17.48,0,0,0,5.87,11.28,17.91,17.91,0,0,0,12.18,4.27,29.27,29.27,0,0,0,8.46-1.33,21.81,21.81,0,0,0,7.22-3.52,2.48,2.48,0,0,1,1.42-.65,1.6,1.6,0,0,1,1.2.54,1.75,1.75,0,0,1,.52,1.27,2,2,0,0,1-.69,1.41c-1.37,1.44-3.82,2.78-7.32,4a32,32,0,0,1-10.81,1.87,21.27,21.27,0,0,1-15.49-6.08,19.83,19.83,0,0,1-6.21-14.72,18.12,18.12,0,0,1,5.82-13.49,20,20,0,0,1,14.42-5.63,19.61,19.61,0,0,1,14.56,5.78Q1240.34,409,1240.25,418.2Zm-3.65-3.66a15.77,15.77,0,0,0-5.65-9.71,17.81,17.81,0,0,0-21.76,0,15.79,15.79,0,0,0-5.67,9.75Z" transform="translate(-107.71 -267.48)"/></svg>