<svg id="Layer_1" data-name="Layer 1" xmlns="http://www.w3.org/2000/svg" viewBox="0 0 1070.8 429"><defs><style>.cls-1{fill:#fff;}</style></defs><path class="cls-1" d="M398.3,315.2a107.6,107.6,0,0,0,4.7-31.7,109.5,109.5,0,1,0-213.6,34.1,79,79,0,0,0,28.1,152.9,76.7,76.7,0,0,0,13.7-1.2l-43.8-42.5a9.5,9.5,0,0,1,13.2-13.6l51.2,49.5A79.5,79.5,0,0,0,280,439.8V310a14,14,0,0,1,28,0V433.7a76.7,76.7,0,0,0,7.6,11L389.3,371a9.5,9.5,0,0,1,13.4,0,9.3,9.3,0,0,1,0,13.4l-73.4,73.5A73.9,73.9,0,0,0,374,473c42.5,0,77-36.3,77-81C451,356.2,428.9,325.9,398.3,315.2Z" transform="translate(-138.5 -174)"/><path class="cls-1" d="M315.6,444.7l-7.6,7.6V433.7a84.5,84.5,0,0,1-11-40.8h-.5A79.5,79.5,0,0,1,280,439.8V490l-28.2-27.3a78.8,78.8,0,0,1-20.6,6.6L280,516.5V589a14,14,0,0,0,28,0V478.6a8.9,8.9,0,0,0,2.2-1.6l19.1-19.1A74.4,74.4,0,0,1,315.6,444.7Z" transform="translate(-138.5 -174)"/><path class="cls-1" d="M508.5,473.3V239.6H425V192H648.5v47.6H565.3V473.3Z" transform="translate(-138.5 -174)"/><path class="cls-1" d="M714.8,473.3h-54V269.5h50.1v29c8.6-13.7,16.3-22.7,23.1-27.1a43.4,43.4,0,0,1,23.4-6.5c12.2,0,24.1,3.4,35.5,10.2l-16.7,47c-9.1-5.9-17.6-8.8-25.4-8.8s-13.9,2-19.2,6.2-9.3,11.7-12.3,22.5-4.5,33.7-4.5,68.4Z" transform="translate(-138.5 -174)"/><path class="cls-1" d="M934.1,408.4l53.7,9.1q-10.3,29.5-32.7,45c-14.9,10.3-33.6,15.4-55.9,15.4q-53.2,0-78.7-34.7c-13.4-18.6-20.2-42-20.2-70.3,0-33.7,8.9-60.2,26.5-79.3s40-28.7,67-28.7q45.5,0,71.8,30c17.5,20.1,25.9,50.7,25.1,92H855.6c.4,16,4.7,28.5,13.1,37.4s18.6,13.3,31,13.3q12.8,0,21.3-6.9C926.8,426.1,931.1,418.7,934.1,408.4Zm3.1-54.5c-.4-15.6-4.5-27.4-12.1-35.6a37.1,37.1,0,0,0-28-12.1c-11.8,0-21.5,4.2-29.2,12.8s-11.5,20.2-11.3,34.9Z" transform="translate(-138.5 -174)"/><path class="cls-1" d="M1152.7,408.4l53.7,9.1q-10.4,29.5-32.7,45t-56,15.4q-53.1,0-78.6-34.7-20.2-27.9-20.2-70.3c0-33.7,8.8-60.2,26.5-79.3s40-28.7,67-28.7q45.4,0,71.7,30c17.6,20.1,25.9,50.7,25.2,92H1074.2c.4,16,4.7,28.5,13,37.4s18.7,13.3,31.1,13.3c8.5,0,15.5-2.3,21.3-6.9S1149.7,418.7,1152.7,408.4Zm3-54.5c-.4-15.6-4.4-27.4-12.1-35.6a37,37,0,0,0-28-12.1c-11.8,0-21.5,4.2-29.1,12.8s-11.5,20.2-11.4,34.9Z" transform="translate(-138.5 -174)"/><path class="cls-1" d="M501.3,567.4V484.5h26.8c10.2,0,16.8.4,19.9,1.2a22,22,0,0,1,12,8.2c3.2,4.1,4.8,9.5,4.8,16.1a27.2,27.2,0,0,1-2.8,12.8,23.6,23.6,0,0,1-7,8.2,23.9,23.9,0,0,1-8.7,3.9,94.9,94.9,0,0,1-17.4,1.2H518v31.3ZM518,498.5V522h9.2c6.6,0,11-.4,13.2-1.3a10.5,10.5,0,0,0,5.2-4,11.1,11.1,0,0,0,1.9-6.5,10.8,10.8,0,0,0-2.6-7.4,11.8,11.8,0,0,0-6.8-3.7,75.5,75.5,0,0,0-12-.6Z" transform="translate(-138.5 -174)"/><path class="cls-1" d="M594.2,484.5V515c5.2-6,11.3-9,18.4-9a24,24,0,0,1,9.9,2,16.1,16.1,0,0,1,6.6,5.2,18.4,18.4,0,0,1,3.1,7,68.4,68.4,0,0,1,.8,12v35.2H617.1V535.7q0-9.5-.9-12a7.6,7.6,0,0,0-3.2-4.1,10.1,10.1,0,0,0-5.7-1.5,13.3,13.3,0,0,0-7.1,2,10.6,10.6,0,0,0-4.5,5.8c-1,2.5-1.5,6.4-1.5,11.4v30.1H578.3V484.5Z" transform="translate(-138.5 -174)"/><path class="cls-1" d="M645.5,536.5a32.2,32.2,0,0,1,3.9-15.3,27.2,27.2,0,0,1,11-11.3,33,33,0,0,1,16-3.9c9.1,0,16.5,2.9,22.3,8.8s8.7,13.4,8.7,22.4-2.9,16.6-8.8,22.6-13.2,9-22.1,9a34.6,34.6,0,0,1-15.7-3.8,25.6,25.6,0,0,1-11.4-10.9C646.8,549.3,645.5,543.4,645.5,536.5Zm16.2.9c0,5.9,1.5,10.5,4.3,13.7a14,14,0,0,0,20.9,0q4.2-4.8,4.2-13.8c0-5.9-1.4-10.4-4.2-13.6a13.8,13.8,0,0,0-20.9,0C663.2,526.9,661.7,531.4,661.7,537.4Z" transform="translate(-138.5 -174)"/><path class="cls-1" d="M747.4,507.3V520H736.6v24.2a62.9,62.9,0,0,0,.3,8.6,3.5,3.5,0,0,0,1.4,2,4.6,4.6,0,0,0,2.7.8,21.4,21.4,0,0,0,6.4-1.5l1.3,12.3a31.3,31.3,0,0,1-12.5,2.4,19.4,19.4,0,0,1-7.8-1.5,10.4,10.4,0,0,1-5-3.7,14.1,14.1,0,0,1-2.3-6.2,84.8,84.8,0,0,1-.5-11.2V520h-7.3V507.3h7.3V495.4l16-9.3v21.2Z" transform="translate(-138.5 -174)"/><path class="cls-1" d="M754.8,536.5a32.2,32.2,0,0,1,3.9-15.3,27.2,27.2,0,0,1,11-11.3,33,33,0,0,1,16-3.9c9.1,0,16.5,2.9,22.3,8.8s8.8,13.4,8.8,22.4-3,16.6-8.8,22.6-13.3,9-22.2,9a34.6,34.6,0,0,1-15.7-3.8,25.6,25.6,0,0,1-11.4-10.9C756.1,549.3,754.8,543.4,754.8,536.5Zm16.3.9c0,5.9,1.4,10.5,4.2,13.7a14,14,0,0,0,20.9,0q4.2-4.8,4.2-13.8c0-5.9-1.4-10.4-4.2-13.6a13.8,13.8,0,0,0-20.9,0C772.5,526.9,771.1,531.4,771.1,537.4Z" transform="translate(-138.5 -174)"/><path class="cls-1" d="M827.7,571.4l18.2,2.2c.3,2.1,1,3.5,2.1,4.3s3.8,1.7,7.1,1.7,7.2-.6,9.3-1.9a7.3,7.3,0,0,0,3.2-4c.5-1.3.7-3.7.7-7.3v-8.7c-4.7,6.5-10.7,9.7-18,9.7s-14.4-3.4-19.1-10.2-5.6-12.1-5.6-20.2c0-10,2.5-17.7,7.3-23a23.2,23.2,0,0,1,18.1-8c7.4,0,13.5,3.2,18.3,9.8v-8.5h14.9v53.9c0,7.1-.6,12.4-1.7,15.9a19.4,19.4,0,0,1-5,8.3,22.5,22.5,0,0,1-8.4,4.7,45.5,45.5,0,0,1-13.4,1.7c-10.2,0-17.4-1.8-21.6-5.3a16.1,16.1,0,0,1-6.4-13.2Zm14.2-35.3c0,6.4,1.3,11.1,3.7,14a11.5,11.5,0,0,0,9.2,4.5,12.9,12.9,0,0,0,9.8-4.6c2.7-3,4-7.5,4-13.5s-1.3-10.8-3.8-13.8a12.4,12.4,0,0,0-9.8-4.6,11.7,11.7,0,0,0-9.4,4.5C843.2,525.5,841.9,530.1,841.9,536.1Z" transform="translate(-138.5 -174)"/><path class="cls-1" d="M915.1,567.4H899.3V507.3H914v8.6c2.5-4,4.8-6.7,6.8-8a12.3,12.3,0,0,1,6.9-1.9,20.5,20.5,0,0,1,10.5,3l-5,13.8a13.8,13.8,0,0,0-7.4-2.6,9.3,9.3,0,0,0-5.7,1.9q-2.2,1.8-3.6,6.6c-.9,3.2-1.4,9.9-1.4,20.2Z" transform="translate(-138.5 -174)"/><path class="cls-1" d="M956.9,525.7l-14.4-2.6c1.6-5.8,4.4-10.1,8.3-12.9s9.9-4.2,17.7-4.2,12.3.8,15.8,2.5,5.9,3.8,7.3,6.4,2.2,7.3,2.2,14.2l-.2,18.6a66.1,66.1,0,0,0,.7,11.6,39.9,39.9,0,0,0,2.9,8.1H981.5c-.4-1.1-.9-2.6-1.5-4.7l-.6-1.9a27.2,27.2,0,0,1-8.7,6,25.4,25.4,0,0,1-9.9,2c-6.2,0-11.1-1.7-14.6-5.1a17.7,17.7,0,0,1-2.9-21.8,15.6,15.6,0,0,1,6.8-6.1,55.5,55.5,0,0,1,12.6-3.7c7.4-1.4,12.6-2.7,15.4-3.9v-1.6c0-3-.7-5.2-2.2-6.5s-4.4-2-8.6-2a11.5,11.5,0,0,0-6.6,1.7C959.1,520.9,957.9,522.9,956.9,525.7Zm21.2,12.9q-3,.9-9.6,2.4c-4.4.9-7.3,1.9-8.7,2.8a6.4,6.4,0,0,0-3.1,5.6,7.5,7.5,0,0,0,2.5,5.7,8.5,8.5,0,0,0,6.3,2.5,13.7,13.7,0,0,0,8.2-2.9,9.6,9.6,0,0,0,3.8-5.2,33.3,33.3,0,0,0,.6-7.8Z" transform="translate(-138.5 -174)"/><path class="cls-1" d="M1009,507.3h14.8v8.9a22.2,22.2,0,0,1,7.8-7.4,21.3,21.3,0,0,1,10.9-2.8,22.9,22.9,0,0,1,17.8,8.2q7.2,8.3,7.2,22.8c0,10.1-2.4,17.9-7.3,23.4s-10.8,8.4-17.8,8.4a20.5,20.5,0,0,1-9-2,29.1,29.1,0,0,1-8.5-6.8v30.2H1009Zm15.7,29.1c0,6.7,1.3,11.7,4,14.9a12.3,12.3,0,0,0,9.8,4.8,11.4,11.4,0,0,0,9.2-4.4c2.5-3,3.7-7.8,3.7-14.6s-1.3-10.9-3.8-14a11.9,11.9,0,0,0-9.4-4.6,12.3,12.3,0,0,0-9.7,4.5C1026,526,1024.7,530.5,1024.7,536.4Z" transform="translate(-138.5 -174)"/><path class="cls-1" d="M1096,484.5V515c5.1-6,11.2-9,18.4-9a24.7,24.7,0,0,1,9.9,2,16.8,16.8,0,0,1,6.6,5.2,20,20,0,0,1,3.1,7,68.4,68.4,0,0,1,.8,12v35.2h-15.9V535.7q0-9.5-.9-12a8.1,8.1,0,0,0-3.2-4.1,10.1,10.1,0,0,0-5.7-1.5,13.1,13.1,0,0,0-7.1,2,11.2,11.2,0,0,0-4.6,5.8c-.9,2.5-1.4,6.4-1.4,11.4v30.1h-15.9V484.5Z" transform="translate(-138.5 -174)"/><path class="cls-1" d="M1143.4,507.3h16.9l14.4,42.7,14-42.7h16.4l-21.2,57.8-3.8,10.5a46,46,0,0,1-3.9,8,17.2,17.2,0,0,1-10.5,7.2,28.5,28.5,0,0,1-8.1,1,39.4,39.4,0,0,1-9-1l-1.4-12.4a34.9,34.9,0,0,0,6.8.7c3.7,0,6.4-1.1,8.2-3.2a23.8,23.8,0,0,0,4-8.3Z" transform="translate(-138.5 -174)"/></svg>